<?xml version="1.0" encoding="UTF-8"?>
<svg width="40" height="40" viewBox="0 0 40 40" fill="none" xmlns="http://www.w3.org/2000/svg">
  <circle cx="20" cy="20" r="20" fill="#3B82F6" fillOpacity="0.2"/>
  <circle cx="20" cy="20" r="8" fill="#3B82F6"/>
  <path d="M24 18.5h-1l-1-2h-4l-1 2h-1c-.55 0-1 .45-1 1v3c0 .55.45 1 1 1h.5c0 .83.67 1.5 1.5 1.5s1.5-.67 1.5-1.5h2c0 .83.67 1.5 1.5 1.5s1.5-.67 1.5-1.5h.5c.55 0 1-.45 1-1v-3c0-.55-.45-1-1-1zm-6 7c-.55 0-1-.45-1-1s.45-1 1-1 1 .45 1 1-.45 1-1 1zm5 0c-.55 0-1-.45-1-1s.45-1 1-1 1 .45 1 1-.45 1-1 1zm1-4H16v-2h8v2z" fill="white"/>
</svg>